name C:\Users\u0150099\Documents\master_thesis\3dpredictsim\Results\debug\Fal_s1_mtjc2_sc_cspx10_oy2_ATx70_MTc2_MTPm_k1_d01_MTJm_nl_MG_exp5_table_d01_PF_Natali2010_x3_ls146_lTs125_Fpsl10_ig21_wAk5e+03_wa2e+03_wpMnD1e+03.mot
datacolumns 128
datarows 4
range 0.54821401 0.58110685
endheader
time	pelvis_tilt	pelvis_list	pelvis_rotation	pelvis_tx	pelvis_ty	pelvis_tz	hip_flexion_l	hip_adduction_l	hip_rotation_l	hip_flexion_r	hip_adduction_r	hip_rotation_r	knee_angle_l	knee_angle_r	ankle_angle_l	ankle_angle_r	subtalar_angle_l	subtalar_angle_r	mtj_angle_l	mtj_angle_r	mtp_angle_l	mtp_angle_r	lumbar_extension	lumbar_bending	lumbar_rotation	arm_flex_l	arm_add_l	arm_rot_l	arm_flex_r	arm_add_r	arm_rot_r	elbow_flex_l	elbow_flex_r	pro_sup_l	pro_sup_r	glut_med1_l/activation	glut_med2_l/activation	glut_med3_l/activation	glut_min1_l/activation	glut_min2_l/activation	glut_min3_l/activation	semimem_l/activation	semiten_l/activation	bifemlh_l/activation	bifemsh_l/activation	sar_l/activation	add_long_l/activation	add_brev_l/activation	add_mag1_l/activation	add_mag2_l/activation	add_mag3_l/activation	tfl_l/activation	pect_l/activation	grac_l/activation	glut_max1_l/activation	glut_max2_l/activation	glut_max3_l/activation	iliacus_l/activation	psoas_l/activation	quad_fem_l/activation	gem_l/activation	peri_l/activation	rect_fem_l/activation	vas_med_l/activation	vas_int_l/activation	vas_lat_l/activation	med_gas_l/activation	lat_gas_l/activation	soleus_l/activation	tib_post_l/activation	flex_dig_l/activation	flex_hal_l/activation	tib_ant_l/activation	per_brev_l/activation	per_long_l/activation	per_tert_l/activation	ext_dig_l/activation	ext_hal_l/activation	ercspn_l/activation	intobl_l/activation	extobl_l/activation	glut_med1_r/activation	glut_med2_r/activation	glut_med3_r/activation	glut_min1_r/activation	glut_min2_r/activation	glut_min3_r/activation	semimem_r/activation	semiten_r/activation	bifemlh_r/activation	bifemsh_r/activation	sar_r/activation	add_long_r/activation	add_brev_r/activation	add_mag1_r/activation	add_mag2_r/activation	add_mag3_r/activation	tfl_r/activation	pect_r/activation	grac_r/activation	glut_max1_r/activation	glut_max2_r/activation	glut_max3_r/activation	iliacus_r/activation	psoas_r/activation	quad_fem_r/activation	gem_r/activation	peri_r/activation	rect_fem_r/activation	vas_med_r/activation	vas_int_r/activation	vas_lat_r/activation	med_gas_r/activation	lat_gas_r/activation	soleus_r/activation	tib_post_r/activation	flex_dig_r/activation	flex_hal_r/activation	tib_ant_r/activation	per_brev_r/activation	per_long_r/activation	per_tert_r/activation	ext_dig_r/activation	ext_hal_r/activation	ercspn_r/activation	intobl_r/activation	extobl_r/activation	
          0.54821401	         -2.72747394	          2.45452529	        -10.62241317	          0.72912463	          0.91569888	          0.01392690	         20.97731965	          1.67398937	         -4.73803749	        -20.05885434	         -0.74369153	         11.75070479	          2.22147715	         -5.63003210	         -5.92208920	         -5.32726089	         -5.89533822	         -7.44141290	          2.58399010	         -3.75474447	         -6.89060492	         29.43272610	         -2.72664640	         -0.96935391	          4.38029357	         -1.58919432	        -13.45257556	          7.71956003	          4.08486029	        -14.06652816	         19.29608639	          3.22811732	         54.73598214	         86.51662706	         86.51662706	          0.05001417	          0.05000223	          0.05000177	          0.05000361	          0.05000291	          0.05000304	          0.32562496	          0.12011351	          0.29661189	          0.06460338	          0.05000190	          0.20756477	          0.23683294	          0.24591420	          0.21056861	          0.16474502	          0.05000758	          0.10089588	          0.19867592	          0.05001338	          0.05912883	          0.16103263	          0.11570869	          0.10782465	          0.06942265	          0.05000260	          0.05000101	          0.05000136	          0.05002390	          0.05002434	          0.05001599	          0.09434399	          0.05233946	          0.05000049	          0.05000089	          0.05000500	          0.05000295	          0.23446485	          0.10898993	          0.12174448	          0.23011374	          0.49572004	          0.30785972	          0.07301964	          0.15578875	          0.05000705	          0.49640089	          0.09095437	          0.05000048	          0.60183837	          0.31149936	          0.10600547	          0.05000455	          0.05000061	          0.05000043	          0.08977366	          0.16396860	          0.05000030	          0.05000036	          0.05000049	          0.05000147	          0.05000146	          0.53739042	          0.05000173	          0.05000089	          0.05000777	          0.05000353	          0.05000176	          0.65742278	          0.81581351	          0.05000025	          0.05000172	          0.05000063	          0.26007656	          0.05000240	          0.05000232	          0.05000236	          0.54285223	          0.65749458	          0.49139245	          0.44018186	          0.41193247	          0.48221747	          0.05000012	          0.08530179	          0.20247099	          0.05000055	          0.05000023	          0.08453454	          0.05000015	          0.05000005	          0.05000012	
          0.55917829	         -2.80212230	          2.60951669	        -11.00844752	          0.74667957	          0.91446050	          0.01431344	         20.91010896	          2.13463257	         -4.49085865	        -19.94280629	         -1.17375519	         11.47149930	          1.54973024	         -7.26663348	         -6.23121088	         -6.02129843	         -6.13219984	         -6.56673928	          2.78292521	         -4.98474309	         -7.32044122	         32.40257403	         -2.41444555	         -1.22807959	          4.44472525	         -2.56460892	        -13.45023374	          8.04189149	          3.62084392	        -13.97953330	         19.37505658	          1.86845563	         57.44659042	         86.51662706	         86.51662706	          0.05000115	          0.05000110	          0.05000051	          0.05913523	          0.05000915	          0.05000206	          0.28694236	          0.10155595	          0.26429011	          0.07052644	          0.05000874	          0.19145162	          0.24088962	          0.24297220	          0.20693319	          0.17114661	          0.05000102	          0.13823725	          0.18760159	          0.05000131	          0.05000055	          0.18593022	          0.09783949	          0.09116760	          0.23284272	          0.13686792	          0.05000372	          0.05000037	          0.05000297	          0.05000293	          0.05000284	          0.08272410	          0.06103783	          0.05000028	          0.05000321	          0.07092589	          0.06547871	          0.25171516	          0.13062378	          0.12417515	          0.25404020	          0.51186663	          0.35447294	          0.06173858	          0.13171877	          0.05000164	          0.41970540	          0.07690164	          0.05000034	          0.50885220	          0.26337165	          0.08962737	          0.05000424	          0.05000065	          0.05000052	          0.07590332	          0.13863529	          0.05000075	          0.05000091	          0.05000090	          0.05000236	          0.05000208	          0.45436255	          0.05000671	          0.05000133	          0.05000565	          0.05000305	          0.05000196	          0.55584847	          0.74093409	          0.05000033	          0.05000195	          0.05000074	          0.31877492	          0.05503292	          0.06265892	          0.05010077	          0.45897959	          0.56896686	          0.41547032	          0.38526848	          0.43318636	          0.47975208	          0.05000008	          0.07212245	          0.17118850	          0.05000045	          0.05000017	          0.07147382	          0.05000048	          0.05000009	          0.05000013	
          0.57014257	         -2.86068654	          2.82123780	        -11.35736124	          0.76482752	          0.91363411	          0.01462225	         20.80882387	          2.63195089	         -4.24078140	        -19.71667108	         -1.69814170	         11.03595110	          0.23683626	         -9.00671008	         -6.88151047	         -7.08584419	         -6.37988947	         -5.49539388	          2.87898298	         -6.43121164	         -7.70699089	         35.82020168	         -2.05573549	         -1.54740580	          4.50047840	         -3.72607036	        -13.45259802	          8.64827581	          3.01950279	        -13.87484598	         19.38663184	          0.89253248	         60.10660564	         86.51662706	         86.51662706	          0.05000019	          0.05000027	          0.05000069	          0.05000034	          0.05000037	          0.05000053	          0.24260861	          0.08586542	          0.22345624	          0.05963067	          0.05914043	          0.16187247	          0.20959954	          0.23483663	          0.17499543	          0.17167353	          0.05000203	          0.11688321	          0.16052734	          0.05000149	          0.06836182	          0.19118947	          0.08272337	          0.07708255	          0.37427880	          0.11572322	          0.05000143	          0.05004533	          0.05000732	          0.05000721	          0.05000644	          0.06994303	          0.05930483	          0.05913703	          0.05000040	          0.05997006	          0.05920917	          0.30785839	          0.15312902	          0.12284805	          0.46687550	          0.54363368	          0.29991056	          0.05220007	          0.11136768	          0.05000139	          0.35485939	          0.06502013	          0.05000072	          0.43023263	          0.22267982	          0.07577976	          0.05000491	          0.05000072	          0.05000063	          0.06417602	          0.11721592	          0.05000108	          0.05000083	          0.05000136	          0.05000337	          0.05000306	          0.38416226	          0.05000588	          0.05000193	          0.05000985	          0.05000527	          0.05000309	          0.46996774	          0.66227804	          0.05000066	          0.05000400	          0.05000111	          0.32191678	          0.16187599	          0.16187646	          0.15019254	          0.38806534	          0.48105931	          0.35127841	          0.32574300	          0.43359572	          0.40563471	          0.05000008	          0.06097941	          0.14473926	          0.05000030	          0.05000013	          0.06043107	          0.05094672	          0.05000032	          0.05000010	
          0.58110685	         -2.90073170	          3.11898243	        -11.67754410	          0.78351594	          0.91314963	          0.01491143	         20.61877145	          3.12016498	         -3.85503645	        -19.44694976	         -2.35563378	         10.46768987	         -1.29712345	        -10.68588745	         -7.67285088	         -8.65572110	         -6.57690099	         -4.32636895	          3.07225205	         -8.02639674	         -8.01507311	         39.60966473	         -1.64811163	         -1.96161750	          4.54920658	         -5.06278280	        -13.47354992	          9.43641803	          2.29363684	        -13.75101176	         19.36652064	          0.29244109	         62.72125430	         86.51662706	         86.51662706	          0.26435612	          0.17210307	          0.05294109	          0.06993294	          0.05923294	          0.05919264	          0.20512459	          0.08796608	          0.18893137	          0.07366699	          0.05000646	          0.13686266	          0.17721582	          0.19855412	          0.14795940	          0.19360277	          0.05000212	          0.09882519	          0.13572778	          0.18094640	          0.19696483	          0.22177397	          0.06994238	          0.06517310	          0.31645137	          0.09784422	          0.06994312	          0.05000018	          0.05000158	          0.05000155	          0.05000158	          0.05913659	          0.05014213	          0.05000015	          0.05002706	          0.05070473	          0.05006152	          0.35706162	          0.12947074	          0.12131448	          0.42937235	          0.60809738	          0.59554597	          0.05000009	          0.09416094	          0.05000025	          0.30003238	          0.05497438	          0.05000020	          0.36376012	          0.18827505	          0.06407167	          0.05000600	          0.05000075	          0.05000057	          0.05426071	          0.09910588	          0.09424981	          0.05224871	          0.05000373	          0.05000636	          0.05000473	          0.32480821	          0.05931457	          0.05000163	          0.05000470	          0.05000283	          0.05000204	          0.39735589	          0.59877137	          0.05000031	          0.05000162	          0.05000047	          0.27217946	          0.13686663	          0.13686683	          0.12698836	          0.32810763	          0.40673371	          0.29700442	          0.27541438	          0.39551850	          0.34296323	          0.05000005	          0.05913614	          0.12237651	          0.05000029	          0.05000010	          0.05109463	          0.07504935	          0.05000015	          0.05000034	
